<svg id="svg" version="1.1" xmlns="http://www.w3.org/2000/svg" xmlns:xlink="http://www.w3.org/1999/xlink" width="400" height="379.6" viewBox="0, 0, 400,379.6"><g id="svgg"><path id="path0" d="M106.521 176.420 C 104.038 179.505,101.240 183.544,99.902 185.973 C 99.220 187.211,98.347 188.527,97.961 188.897 C 97.575 189.268,96.580 190.994,95.750 192.733 L 94.240 195.896 95.330 201.367 C 100.167 225.657,109.866 244.503,126.080 261.113 C 131.624 266.793,140.931 274.681,140.931 273.700 C 140.931 273.584,140.493 272.424,139.959 271.123 C 138.758 268.198,136.838 260.904,136.505 258.001 C 136.369 256.813,136.091 255.732,135.889 255.600 C 135.396 255.278,135.403 242.502,135.896 241.880 C 136.102 241.619,136.387 240.497,136.528 239.387 C 137.209 234.031,141.360 221.474,142.991 219.833 C 143.243 219.580,144.170 218.137,145.052 216.625 C 149.627 208.784,158.841 200.119,167.149 195.846 C 169.129 194.828,170.836 193.871,170.940 193.721 C 171.045 193.570,172.287 193.033,173.700 192.526 L 176.270 191.605 172.561 189.478 C 155.104 179.465,134.135 174.085,113.802 174.402 L 108.072 174.492 106.521 176.420 M306.173 213.383 C 297.796 213.639,287.744 214.955,280.401 216.756 C 269.796 219.358,252.168 226.688,252.819 228.225 C 254.070 231.177,256.026 240.654,256.029 243.780 C 256.030 244.668,256.201 245.394,256.410 245.394 C 256.633 245.394,256.790 246.716,256.790 248.601 C 256.790 250.364,256.619 251.913,256.410 252.042 C 256.201 252.171,256.030 252.993,256.029 253.869 C 256.025 259.954,251.396 275.277,248.644 278.316 C 248.424 278.559,247.730 279.648,247.104 280.735 C 244.131 285.891,238.608 292.089,233.618 295.869 C 230.885 297.940,230.765 298.096,230.665 299.726 C 229.426 319.886,220.705 342.627,207.577 359.930 L 204.114 364.494 208.135 364.207 C 218.487 363.468,237.574 359.252,239.561 357.265 C 239.840 356.986,240.625 356.637,241.307 356.491 C 242.777 356.175,254.545 350.793,254.862 350.292 C 254.982 350.102,256.077 349.408,257.294 348.751 C 259.142 347.753,262.935 345.407,265.578 343.628 C 265.919 343.398,267.372 342.265,268.807 341.110 C 270.241 339.955,271.875 338.718,272.437 338.362 C 272.999 338.006,274.711 336.472,276.242 334.954 C 277.772 333.436,279.426 331.937,279.917 331.624 C 280.408 331.311,281.708 329.943,282.806 328.585 C 283.904 327.227,285.733 325.176,286.871 324.027 C 288.008 322.877,289.264 321.425,289.661 320.798 C 290.058 320.171,291.400 318.291,292.643 316.619 C 295.656 312.568,298.023 308.840,299.638 305.605 C 300.369 304.141,301.421 302.260,301.976 301.425 C 303.262 299.491,306.411 291.970,308.099 286.800 C 308.816 284.606,309.513 282.726,309.649 282.621 C 309.910 282.421,311.916 274.398,312.593 270.845 C 315.655 254.779,314.973 234.297,310.841 218.234 C 309.544 213.191,309.626 213.277,306.173 213.383 M52.707 216.792 C 53.177 216.883,53.946 216.883,54.416 216.792 C 54.886 216.702,54.501 216.628,53.561 216.628 C 52.621 216.628,52.236 216.702,52.707 216.792 M337.512 270.706 C 315.729 274.062,314.407 305.475,335.836 310.526 C 351.756 314.278,364.967 299.594,359.798 283.891 C 356.884 275.036,347.074 269.233,337.512 270.706 " stroke="none" fill="#ee3024" fill-rule="evenodd"></path><path id="path1" d="M93.068 198.378 C 92.574 199.479,91.544 201.747,90.777 203.419 C 87.947 209.589,85.351 218.539,83.945 226.971 C 83.493 229.687,82.963 232.507,82.768 233.238 C 81.412 238.328,81.432 260.416,82.796 263.438 C 82.984 263.856,83.332 265.651,83.568 267.426 C 84.574 274.984,87.767 286.696,90.300 292.118 C 91.032 293.685,91.966 295.821,92.374 296.866 C 93.927 300.836,97.203 306.640,102.568 314.925 C 104.461 317.850,111.765 326.685,114.443 329.290 L 116.535 331.324 119.576 328.340 C 129.389 318.711,144.180 317.809,154.357 326.218 C 163.947 334.143,166.524 346.070,161.281 358.271 C 160.384 360.358,181.099 364.123,195.854 364.554 L 203.864 364.787 207.178 360.480 C 217.264 347.370,224.825 331.220,228.243 315.480 C 229.580 309.324,230.676 301.792,230.507 299.925 L 230.389 298.632 227.920 300.135 C 225.507 301.603,220.142 304.274,219.605 304.274 C 219.457 304.274,219.132 304.477,218.883 304.725 C 218.635 304.974,218.216 305.224,217.953 305.281 C 217.689 305.337,216.192 305.820,214.625 306.354 C 203.167 310.255,184.746 309.868,175.130 305.524 C 160.362 298.851,150.810 291.054,145.189 281.083 C 144.536 279.924,143.664 278.586,143.252 278.111 C 142.839 277.636,142.193 276.499,141.815 275.585 C 141.437 274.670,140.762 273.756,140.316 273.553 C 138.747 272.838,130.436 265.576,126.080 261.113 C 109.923 244.561,99.730 224.741,95.333 201.330 C 94.337 196.023,94.201 195.847,93.068 198.378 M50.823 199.426 C 48.357 200.169,44.506 204.629,44.930 206.250 C 45.026 206.618,44.954 207.189,44.770 207.518 C 44.569 207.877,44.582 208.208,44.803 208.344 C 45.005 208.469,45.076 208.819,44.960 209.121 C 44.679 209.854,46.122 212.778,47.405 214.075 C 51.648 218.363,59.579 216.697,61.730 211.064 C 62.477 209.110,62.360 205.169,61.527 204.164 C 61.273 203.859,61.196 203.609,61.355 203.609 C 61.910 203.609,57.999 200.219,56.773 199.637 C 55.460 199.014,52.533 198.910,50.823 199.426 M50.332 248.966 C 34.211 254.078,35.881 277.814,52.544 280.405 C 65.654 282.443,75.816 268.775,69.865 257.109 C 68.671 254.770,65.355 251.311,63.297 250.259 C 59.815 248.478,53.771 247.875,50.332 248.966 " stroke="none" fill="#fbab24" fill-rule="evenodd"></path><path id="path2" d="M75.169 0.813 C 75.144 1.306,75.165 1.880,75.215 2.089 C 75.265 2.298,75.547 4.777,75.842 7.597 C 77.906 27.318,81.680 44.211,87.722 60.767 C 89.745 66.308,95.886 79.000,97.436 80.842 C 97.958 81.463,98.386 82.133,98.386 82.331 C 98.386 82.528,99.437 84.213,100.722 86.074 C 112.881 103.687,129.352 113.162,147.863 113.193 L 152.327 113.200 152.328 110.636 C 152.329 107.610,151.207 98.279,150.809 98.006 C 150.657 97.901,150.412 96.961,150.264 95.916 C 149.436 90.074,145.510 76.363,142.703 69.516 C 141.975 67.740,140.870 65.005,140.248 63.438 C 139.626 61.871,138.839 59.948,138.499 59.164 C 137.626 57.151,138.062 57.397,139.584 59.777 C 140.301 60.897,141.709 62.847,142.713 64.110 C 143.718 65.373,144.994 67.149,145.549 68.056 C 146.105 68.963,147.956 71.757,149.662 74.264 C 151.369 76.771,153.880 80.703,155.242 83.001 C 156.604 85.299,157.841 87.265,157.990 87.369 C 158.221 87.531,159.640 90.058,165.130 100.084 C 166.308 102.235,170.406 110.664,171.599 113.390 C 172.148 114.644,172.737 115.858,172.908 116.089 C 173.626 117.054,177.524 125.332,178.722 128.434 C 180.526 133.104,180.526 133.053,178.727 133.393 C 177.892 133.551,176.866 133.766,176.448 133.870 C 176.030 133.974,173.851 134.486,171.606 135.006 C 163.733 136.831,157.212 138.897,152.896 140.936 C 151.643 141.528,148.566 142.976,146.059 144.153 C 141.953 146.081,138.016 148.285,137.512 148.939 C 137.407 149.075,136.638 149.532,135.802 149.956 C 129.911 152.944,116.160 164.841,109.754 172.493 L 108.191 174.359 115.921 174.359 C 136.071 174.359,157.862 180.215,173.789 189.909 L 176.448 191.527 178.348 190.941 C 187.080 188.245,198.617 187.686,207.797 189.512 C 211.706 190.290,220.635 193.066,221.059 193.635 C 221.176 193.793,222.469 194.520,223.930 195.252 C 229.953 198.264,238.746 205.263,242.355 209.917 C 246.584 215.369,249.701 220.384,251.302 224.311 C 251.983 225.983,252.599 227.329,252.671 227.303 C 252.743 227.277,254.767 226.309,257.170 225.153 C 272.390 217.827,286.497 214.328,305.091 213.268 L 309.137 213.037 307.712 208.798 C 305.586 202.475,304.404 199.823,300.403 192.392 C 296.802 185.704,291.571 178.046,286.916 172.650 C 282.807 167.885,275.755 161.025,272.365 158.493 C 270.798 157.323,269.388 156.158,269.233 155.903 C 268.419 154.571,253.745 145.549,249.137 143.547 C 247.330 142.763,244.814 141.597,243.546 140.957 C 240.892 139.617,232.504 136.785,228.238 135.789 C 225.348 135.114,224.663 134.078,226.371 132.961 C 226.660 132.772,229.820 127.346,229.820 127.038 C 229.820 126.407,240.285 110.468,242.711 107.403 C 247.925 100.818,250.339 98.015,254.541 93.668 C 259.844 88.181,264.415 84.059,262.856 86.169 C 262.340 86.867,261.744 87.721,261.531 88.068 C 261.319 88.415,260.135 90.237,258.901 92.118 C 257.666 93.998,256.034 96.500,255.273 97.678 C 254.512 98.855,252.814 102.189,251.501 105.085 C 250.188 107.982,248.723 111.213,248.246 112.267 C 246.499 116.122,244.125 128.024,244.864 129.219 C 245.516 130.274,259.140 128.452,262.807 126.819 C 265.487 125.626,270.472 123.187,272.123 122.261 C 273.892 121.269,282.002 113.932,282.907 112.505 C 283.260 111.947,284.417 110.380,285.477 109.022 C 291.922 100.766,297.587 86.880,301.222 70.425 C 301.633 68.567,302.237 65.850,302.565 64.388 C 303.668 59.475,305.845 38.672,305.312 38.139 C 304.363 37.190,274.404 41.988,269.152 43.931 C 268.308 44.243,265.992 44.991,264.008 45.592 C 253.093 48.897,240.493 54.752,235.518 58.830 C 234.577 59.601,233.295 60.557,232.669 60.956 C 232.042 61.354,230.021 63.144,228.178 64.933 C 215.756 76.992,211.795 91.219,215.619 110.033 L 216.249 113.133 214.096 115.731 C 212.911 117.160,211.464 118.841,210.879 119.468 C 209.641 120.797,207.265 124.056,206.564 125.391 C 205.160 128.064,202.623 131.802,202.290 131.691 C 202.080 131.621,201.291 129.603,200.536 127.206 C 199.054 122.501,196.884 116.663,196.389 116.049 C 196.220 115.840,195.447 114.131,194.671 112.251 C 192.667 107.392,191.034 104.250,187.993 99.398 C 186.064 96.321,185.378 94.896,185.495 94.207 C 185.583 93.685,186.096 91.106,186.636 88.476 C 189.215 75.914,188.832 64.012,185.501 53.181 C 179.631 34.097,158.099 16.748,130.550 8.906 C 128.007 8.182,125.584 7.425,125.166 7.224 C 120.261 4.867,95.864 1.071,79.867 0.176 L 75.214 -0.084 75.169 0.813 M111.507 127.912 C 107.746 128.868,104.601 133.545,104.939 137.681 C 105.891 149.317,122.496 149.681,124.083 138.100 C 124.980 131.558,118.337 126.177,111.507 127.912 M318.228 174.372 C 306.242 177.368,309.196 195.770,321.503 194.782 C 329.991 194.101,333.778 184.691,328.531 177.322 C 326.909 175.044,321.608 173.527,318.228 174.372 M118.503 332.858 C 120.077 334.536,120.418 334.837,120.418 334.552 C 120.418 334.491,119.606 333.679,118.613 332.748 L 116.809 331.054 118.503 332.858 M122.317 336.351 C 122.840 336.931,124.292 338.183,125.546 339.133 C 128.340 341.249,127.604 340.455,124.027 337.495 C 122.564 336.285,121.795 335.770,122.317 336.351 M132.194 343.980 C 132.194 344.082,133.348 344.900,134.758 345.799 C 138.148 347.960,138.272 348.032,138.272 347.829 C 138.272 347.733,136.904 346.786,135.233 345.725 C 133.561 344.664,132.194 343.879,132.194 343.980 M144.729 351.580 C 144.729 351.777,147.407 353.159,148.826 353.694 C 149.393 353.909,149.687 353.925,149.478 353.732 C 149.008 353.297,144.729 351.358,144.729 351.580 M150.807 354.606 C 151.330 354.904,151.928 355.149,152.137 355.149 C 152.346 355.149,152.089 354.904,151.567 354.606 C 151.045 354.307,150.446 354.063,150.237 354.063 C 150.028 354.063,150.285 354.307,150.807 354.606 " stroke="none" fill="#abd334" fill-rule="evenodd"></path><path id="path3" d="M133.802 321.030 C 128.621 321.893,122.005 325.596,118.766 329.446 L 117.243 331.258 118.546 332.617 C 126.650 341.075,144.037 352.031,157.036 356.869 C 161.362 358.480,160.973 358.669,162.471 354.226 C 168.478 336.414,152.502 317.915,133.802 321.030 " stroke="none" fill="#6cbc34" fill-rule="evenodd"></path><path id="path4" d="M306.273 213.378 C 306.850 213.465,307.705 213.463,308.172 213.373 C 308.640 213.283,308.167 213.211,307.123 213.214 C 306.078 213.217,305.696 213.291,306.273 213.378 M119.064 328.680 L 117.949 329.915 119.183 328.799 C 120.334 327.759,120.592 327.445,120.299 327.445 C 120.234 327.445,119.678 328.001,119.064 328.680 M116.553 331.529 C 115.650 332.595,114.480 334.795,113.961 336.403 C 113.697 337.222,113.334 338.078,113.154 338.307 C 112.974 338.535,112.940 338.834,113.077 338.971 C 113.215 339.109,113.164 339.221,112.965 339.221 C 112.766 339.221,112.576 339.520,112.542 339.886 C 112.509 340.252,112.286 341.576,112.048 342.830 C 110.712 349.865,113.871 359.452,119.372 365.052 C 122.325 368.059,128.114 371.192,131.719 371.733 C 132.607 371.867,133.333 372.119,133.333 372.294 C 133.333 372.717,142.028 372.646,142.291 372.221 C 142.403 372.039,142.918 371.890,143.434 371.890 C 147.661 371.890,153.901 367.976,159.164 362.024 C 160.689 360.299,161.670 357.847,160.737 358.091 C 159.349 358.454,148.662 353.893,141.909 350.057 C 131.710 344.263,116.380 332.554,117.218 331.197 C 117.575 330.619,117.141 330.836,116.553 331.529 M305.002 335.645 C 300.934 337.630,298.829 342.889,300.675 346.458 C 300.993 347.074,301.129 347.578,300.975 347.578 C 300.401 347.578,304.080 350.999,305.254 351.556 C 306.926 352.349,310.559 352.285,312.444 351.428 C 313.750 350.835,314.687 349.952,316.859 347.270 C 317.690 346.245,318.018 342.362,317.395 340.931 C 317.213 340.513,317.050 340.060,317.032 339.925 C 316.543 336.265,309.133 333.629,305.002 335.645 " stroke="none" fill="#c4d33b" fill-rule="evenodd"></path></g></svg>